<svg width="388" height="269" viewBox="0 0 388 269" fill="none" xmlns="http://www.w3.org/2000/svg">
<path fill-rule="evenodd" clip-rule="evenodd" d="M190.143 268.094L182.622 268.083L182.522 268.083C121.973 267.995 61.8673 267.907 1.76128 267.769C1.42112 267.768 1.0817 267.442 0.681256 267.058C0.473476 266.858 0.249268 266.643 0 266.449C2.90419 258.372 5.80609 250.294 8.7081 242.216C15.292 223.888 21.8765 205.558 28.4899 187.239C33.6043 173.072 38.7385 158.912 43.8726 144.753L43.8752 144.745L43.8788 144.736C49.1923 130.081 54.5057 115.427 59.7973 100.765C65.2131 85.7584 70.6022 70.7422 75.9914 55.726L75.9928 55.7219C79.7068 45.3734 83.4207 35.0249 87.1434 24.6796C87.5068 23.6696 87.8693 22.6593 88.2318 21.6489L88.234 21.6427C90.4886 15.3581 92.7438 9.07218 95.2284 2.87922C95.6169 1.91087 96.8782 1.24986 98.0572 0.632024C98.3718 0.467138 98.6806 0.305326 98.9653 0.141568C99.3095 -0.0563879 99.7974 -0.00462862 100.285 0.0471216C100.507 0.0706773 100.729 0.0942312 100.938 0.0942316L382.319 0.0943756H387.501C386.675 2.56564 385.879 4.99198 385.095 7.38408L385.094 7.38727L385.093 7.39144C383.408 12.5312 381.774 17.513 379.996 22.4423C375.869 33.8826 371.688 45.3034 367.506 56.7241L367.505 56.728C364.507 64.9156 361.51 73.1031 358.532 81.2979C348.859 107.92 339.195 134.546 329.597 161.195C324.206 176.161 318.841 191.137 313.476 206.113C308.355 220.407 303.234 234.702 298.091 248.988C297.436 250.806 296.671 252.593 295.907 254.379L295.907 254.379L295.907 254.379C294.622 257.382 293.34 260.38 292.587 263.511C291.547 267.835 289.262 268.173 285.602 268.16C261.251 268.071 236.9 268.08 212.321 268.089H212.306C204.941 268.091 197.555 268.094 190.143 268.094ZM190.177 81.0295C198.565 84.3297 206.873 87.5988 215.323 90.3525C216.81 90.8371 218.302 91.3057 219.799 91.7557C237.892 97.1951 255.561 95.0434 271.617 84.1462C271.851 83.9868 272.086 83.8277 272.322 83.6688C272.504 83.5455 272.687 83.4223 272.87 83.2992C275.801 81.3277 278.778 79.3838 281.907 77.3409L282.546 76.9233C284.043 75.9457 285.576 74.9438 287.156 73.904L287.173 74.269C287.249 75.8482 287.328 77.3941 287.407 78.914L287.443 79.6152L287.493 80.5851C287.742 85.4254 287.969 90.0242 288.049 94.6255C288.049 94.6457 288.049 94.666 288.049 94.6864C288.045 95.9756 287.216 97.8326 286.194 98.4375C283.654 99.9412 281.137 101.515 278.619 103.09C271.66 107.442 264.688 111.802 257.162 114.715C245.549 119.212 232.927 119.077 220.771 115.279C217.471 114.247 214.168 113.223 210.864 112.198L210.859 112.197L210.858 112.197C197.101 107.93 183.34 103.663 169.761 98.8829C147.542 91.0613 127.951 95.7481 109.883 109.786C108.316 111.003 106.7 112.156 105.084 113.309L105.084 113.309C104.717 113.571 104.35 113.832 103.984 114.095C103.322 114.569 102.644 115.02 101.79 115.589L101.789 115.589L101.789 115.59C101.346 115.885 100.855 116.211 100.295 116.589L98.8299 91.6926C116.309 77.8302 134.925 71.0591 155.07 71.9758C161.503 72.2539 168.108 73.3034 174.902 75.1433C180.052 77.0456 185.126 79.0419 190.171 81.027L190.172 81.0272L190.177 81.0295ZM100.937 156.094L99.2904 179.82H287.837V156.094H249.143H248.643H100.937Z" fill="#22c55e"/>
</svg>
